<?xml version="1.0" encoding="UTF-8"?>
<svg width="197px" height="200px" viewBox="0 0 197 200" version="1.1" xmlns="http://www.w3.org/2000/svg" xmlns:xlink="http://www.w3.org/1999/xlink">
    <title>Group</title>
    <g id="Page-1" stroke="none" stroke-width="1" fill="none" fill-rule="evenodd">
        <g id="Group" fill-rule="nonzero">
            <path d="M196.851562,200 L193.825781,200 L193.825781,39.2523438 C193.825781,33.0074219 188.740625,27.9265625 182.489453,27.9265625 L93.2765625,27.9265625 C93.9934545,30.8269425 94.3549624,33.8037424 94.353125,36.7914063 C94.353125,45.9976563 90.7511719,55.1421875 84.4707031,61.8796875 C77.5371094,69.3175781 67.7292969,73.5832031 57.5609375,73.5832031 C47.484375,73.5832031 37.7378906,69.3816406 30.8175781,62.0566406 C24.4324219,55.2964844 20.7695312,46.0878906 20.7695312,36.7917969 C20.7695312,33.7875 21.1308594,30.8144531 21.8460937,27.9265625 L14.3757812,27.9265625 C8.13046875,27.9265625 3.04921875,33.0074219 3.04921875,39.2523438 L3.04921875,200 L0.0234375,200 L0.0234375,39.2523438 C0.0234375,31.3386719 6.46171875,24.9007813 14.3753906,24.9007813 L23.8355469,24.9007813 C24.3152344,24.9007813 24.7671875,25.1285156 25.0527344,25.5148438 C25.3375,25.9007813 25.4222656,26.3996094 25.28125,26.8585938 C24.2931692,30.0770008 23.7921808,33.4251309 23.7949219,36.7917969 C23.7949219,45.3234375 27.15625,53.7746094 33.0175781,59.9789063 C39.3671875,66.7019531 48.3132812,70.5574219 57.5605469,70.5574219 C66.8914063,70.5574219 75.89375,66.6425781 82.25625,59.8167969 C88.0210938,53.6332031 91.3273437,45.240625 91.3273437,36.7914062 C91.3300576,33.4248703 90.8290694,30.076873 89.8410156,26.8585938 C89.6999885,26.39977 89.7847646,25.9012578 90.0695312,25.5148438 C90.354942,25.1287361 90.8065746,24.9007813 91.2867187,24.9007813 L182.489062,24.9007813 C190.408594,24.9007813 196.851562,31.3390625 196.851562,39.2523438 L196.851562,200 L196.851562,200 Z" id="Path" fill="#4A555F"></path>
            <path d="M57.5628906,38.3058594 C47.4734375,38.3058594 39.2652344,30.109375 39.2652344,20.0347656 C39.2652344,9.95976562 47.4734375,1.76367188 57.5628906,1.76367188 C67.6523438,1.76367188 75.8605469,9.96015625 75.8605469,20.0347656 C75.8605469,30.1097656 67.6523437,38.3058594 57.5628906,38.3058594 Z M57.5628906,4.78945312 C49.1417969,4.78945312 42.2910156,11.6285156 42.2910156,20.0351562 C42.2910156,28.4417969 49.1421875,35.2804687 57.5628906,35.2804687 C65.9835938,35.2804687 72.8347656,28.4414062 72.8347656,20.0351562 C72.8347656,11.6289062 65.9839844,4.78945312 57.5628906,4.78945312 Z" id="Shape" fill="#4A555F"></path>
            <path d="M57.5628906,32.0042969 C51.0882813,32.0042969 45.8207031,26.6347656 45.8207031,20.0347656 C45.8207031,13.4347656 51.0878906,8.06523437 57.5628906,8.06523437 C64.0378906,8.06523437 69.3050781,13.4347656 69.3050781,20.0347656 C69.3050781,26.6347656 64.0375,32.0042969 57.5628906,32.0042969 Z" id="Path" fill="#F58E6F"></path>
            <path d="M57.5609375,73.584375 C44.4765625,73.584375 32.2765625,66.5472656 25.7226562,55.2199219 C25.5046831,54.8420094 25.460129,54.3884969 25.6003906,53.9753906 C29.4,42.7929687 39.5652344,35.2796875 50.8949219,35.2796875 L64.2375,35.2796875 C75.571875,35.2796875 85.7332031,42.7933594 89.5230469,53.9765625 C89.6626652,54.3894347 89.6178358,54.8424245 89.4,55.2199219 C82.8464844,66.5476563 70.6464844,73.584375 57.5609375,73.584375 L57.5609375,73.584375 Z M28.6953125,54.3007812 C34.7878906,64.3472656 45.7835938,70.5589844 57.5609375,70.5589844 C69.3382812,70.5589844 80.3347656,64.346875 86.4285156,54.3 C82.8898438,44.7042969 74.0550781,38.3054688 64.2375,38.3054688 L50.8949219,38.3054688 C41.08125,38.3054688 32.2429688,44.7042969 28.6953125,54.3007812 L28.6953125,54.3007812 Z" id="Shape" fill="#4A555F"></path>
            <path d="M57.5609375,67.0289063 C47.6015625,67.0289063 38.265625,62.0679688 32.6636719,53.9386719 C36.0371094,46.6144531 43.1117187,41.8355469 50.8953125,41.8355469 L64.2378906,41.8355469 C72.0246094,41.8355469 79.0953125,46.6136719 82.4617187,53.9363281 C76.8582031,62.0667969 67.5222656,67.0289063 57.5609375,67.0289063 Z" id="Path" fill="#F58E6F"></path>
            <path d="M57.5628906,73.5867188 C37.2746094,73.5867188 20.7695312,57.08125 20.7695312,36.7933594 C20.7695312,16.5054687 37.2746094,0 57.5628906,0 C77.8511719,0 94.35625,16.5054687 94.35625,36.7933594 C94.35625,57.08125 77.8507812,73.5867188 57.5628906,73.5867188 Z M57.5628906,3.02578125 C38.9433594,3.02578125 23.7953125,18.1738281 23.7953125,36.7933594 C23.7953125,55.4128906 38.9433594,70.5613281 57.5628906,70.5613281 C76.1824219,70.5613281 91.3304687,55.4132813 91.3304687,36.7933594 C91.3304687,18.1738281 76.1824219,3.02578125 57.5628906,3.02578125 Z" id="Shape" fill="#4A555F"></path>
            <path d="M27.0335938,55.9746101 C26.4991309,55.9751216 26.0041199,55.6933826 25.7316406,55.2335937 C25.322691,54.5485562 24.9444517,53.8456463 24.5980469,53.1269531 C24.2397,52.3762822 24.5545939,51.477121 25.3029862,51.1140395 C26.0513786,50.7509581 26.952511,51.060166 27.3203125,51.80625 C27.6397749,52.4501713 27.9807213,53.0832087 28.3425781,53.7042969 C28.6134822,54.1722261 28.6139962,54.7491771 28.3439264,55.2175882 C28.0738566,55.6859994 27.5742847,55.9746101 27.0335937,55.9746101 L27.0335938,55.9746101 Z M34.1820313,64.7183629 C33.8159009,64.7188533 33.4621586,64.5858006 33.1871094,64.3441406 C32.0002406,63.3036107 30.8862878,62.1827405 29.853125,60.9894531 C29.3153648,60.3584135 29.3856835,59.4121085 30.010806,58.8674812 C30.6359285,58.322854 31.5829458,58.3828224 32.134375,59.0019531 C33.0847261,60.0892063 34.1036,61.114604 35.1847656,62.071875 C35.8101363,62.6239634 35.8700975,63.5782729 35.31875,64.2042969 C35.0319184,64.531845 34.6174153,64.7192973 34.1820312,64.7183629 L34.1820313,64.7183629 Z" id="Shape" fill="#4A555F"></path>
            <path d="M38.7207031,68.1273452 C38.4460938,68.1273452 38.1691406,68.053125 37.9199219,67.8972656 C36.9079302,67.2673454 35.9308445,66.5830072 34.9929688,65.8472656 C34.3342182,65.333274 34.2168679,64.3825787 34.7308595,63.7238282 C35.244851,63.0650776 36.1955463,62.9477273 36.8542969,63.4617188 C37.7118173,64.1296395 38.6026761,64.7536188 39.5234375,65.33125 C39.9669671,65.607628 40.2359219,66.0938157 40.2343816,66.6164063 C40.2343816,66.8898437 40.1605469,67.1667969 40.0039063,67.4160156 C39.7279354,67.8590469 39.2426573,68.128055 38.7207031,68.1273452 L38.7207031,68.1273452 Z M76.4023438,68.1273455 C75.8804668,68.1281389 75.3952057,67.859288 75.1191406,67.4164063 C74.9682452,67.1770284 74.8883306,66.8997652 74.8886646,66.6167969 C74.8870495,66.094187 75.1560233,65.607965 75.5996094,65.3316406 C76.5196889,64.7536905 77.4101354,64.1298565 78.2675781,63.4625 C78.9262567,62.9518265 79.8738657,63.0698847 80.3871094,63.7265625 C80.8996853,64.3835921 80.7847951,65.3313485 80.1300781,65.846875 C79.1923053,66.5828759 78.2152124,67.2673495 77.203125,67.8972656 C76.9631755,68.0478044 76.6856062,68.1275548 76.4023438,68.1273455 L76.4023438,68.1273455 Z" id="Shape" fill="#4A555F"></path>
            <path d="M80.940625,64.7183601 C80.3121573,64.7179709 79.749305,64.329277 79.5263457,63.741688 C79.3033863,63.154099 79.4667058,62.4898608 79.9367187,62.0726562 C81.0177085,61.115199 82.0365709,60.089813 82.9871094,59.0027344 C83.5419758,58.399562 84.4761777,58.3477276 85.094367,58.8858127 C85.7125564,59.4238978 85.7900381,60.3563228 85.2691406,60.9890625 C84.2360877,62.182063 83.1225449,63.3029146 81.9363281,64.34375 C81.6610212,64.5855417 81.307036,64.7187201 80.940625,64.7183601 L80.940625,64.7183601 Z M88.0890625,55.9746097 C87.5483715,55.9746097 87.0487997,55.6859994 86.7787299,55.2175882 C86.50866,54.7491771 86.5091741,54.1722261 86.7800781,53.7042969 C87.1419955,53.0833797 87.4826873,52.4503314 87.8015625,51.80625 C88.165941,51.0541935 89.0709904,50.7399184 89.8230469,51.1042969 C90.5751034,51.4686754 90.8893785,52.3737248 90.525,53.1257812 C90.1787679,53.844944 89.8005249,54.5482518 89.3914063,55.2335937 C89.1186278,55.6932703 88.6235814,55.9749448 88.0890625,55.9746097 L88.0890625,55.9746097 Z M118.602344,58.6796875 L172.818359,58.6796875 L172.818359,61.7054687 L118.602344,61.7054687 L118.602344,58.6796875 Z M118.602344,81.1789062 L172.818359,81.1789062 L172.818359,84.2046875 L118.602344,84.2046875 L118.602344,81.1789062 Z M118.602344,103.678125 L172.818359,103.678125 L172.818359,106.703906 L118.602344,106.703906 L118.602344,103.678125 Z M23.5777344,125.168359 L172.81875,125.168359 L172.81875,128.194141 L23.5777344,128.194141 L23.5777344,125.168359 Z M92.8402344,108.544922 L23.5777344,108.544922 C22.7422773,108.544922 22.0648437,107.867488 22.0648437,107.032031 L22.0648437,83.7011719 C22.0648437,82.8657148 22.7422773,82.1882813 23.5777344,82.1882813 L92.8402344,82.1882813 C93.6756915,82.1882813 94.353125,82.8657148 94.353125,83.7011719 L94.353125,107.032031 C94.353125,107.867488 93.6756915,108.544922 92.8402344,108.544922 L92.8402344,108.544922 Z M25.090625,105.519141 L91.3277344,105.519141 L91.3277344,85.2136719 L25.090625,85.2136719 L25.090625,105.519141 Z" id="Shape" fill="#4A555F"></path>
            <polygon id="Path" fill="#DFDFDF" points="28.6203125 88.7441406 87.7976563 88.7441406 87.7976563 101.989453 28.6203125 101.989453"></polygon>
            <path d="M65.1171875,200 L62.0914062,200 L62.0914062,177.086719 L25.090625,177.086719 L25.090625,200 L22.0648437,200 L22.0648437,175.573828 C22.0648437,174.738371 22.7422773,174.060938 23.5777344,174.060938 L63.6042969,174.060938 C64.439754,174.060938 65.1171875,174.738371 65.1171875,175.573828 L65.1171875,200 Z" id="Path" fill="#4A555F"></path>
            <polygon id="Path" fill="#71CCE0" points="28.6203125 180.616797 58.5613281 180.616797 58.5613281 200 28.6203125 200"></polygon>
            <path d="M23.5777344,186.828516 L63.6042969,186.828516 L63.6042969,189.854297 L23.5777344,189.854297 L23.5777344,186.828516 Z M119.724219,200 L116.698438,200 L116.698438,177.086719 L79.6972656,177.086719 L79.6972656,200 L76.6714844,200 L76.6714844,175.573828 C76.6714844,174.738371 77.3489179,174.060938 78.184375,174.060938 L118.210938,174.060938 C119.046395,174.060938 119.723612,174.738371 119.724219,175.573828 L119.724219,200 L119.724219,200 Z" id="Shape" fill="#4A555F"></path>
            <polygon id="Path" fill="#71CCE0" points="83.2273438 180.616797 113.168359 180.616797 113.168359 200 83.2273438 200"></polygon>
            <path d="M78.1847656,186.828516 L118.211328,186.828516 L118.211328,189.854297 L78.1847656,189.854297 L78.1847656,186.828516 Z M174.331641,200 L171.305859,200 L171.305859,177.086719 L134.304688,177.086719 L134.304688,200 L131.278906,200 L131.278906,175.573828 C131.278906,174.738371 131.95634,174.060938 132.791797,174.060938 L172.818359,174.060938 C173.653816,174.060938 174.331034,174.738371 174.331641,175.573828 L174.331641,200 L174.331641,200 Z" id="Shape" fill="#4A555F"></path>
            <polygon id="Path" fill="#71CCE0" points="137.834766 180.616797 167.775781 180.616797 167.775781 200 137.834766 200"></polygon>
            <path d="M132.792187,186.828516 L172.81875,186.828516 L172.81875,189.854297 L132.792187,189.854297 L132.792187,186.828516 Z M172.81875,158.792578 L23.5777344,158.792578 C22.7422773,158.792362 22.0648437,158.115145 22.0648437,157.279688 L22.0648437,145.842969 C22.0648437,145.007512 22.7422773,144.330294 23.5777344,144.330078 L172.81875,144.330078 C173.654207,144.330294 174.331641,145.007512 174.331641,145.842969 L174.331641,157.279688 C174.331641,158.115145 173.654207,158.792362 172.81875,158.792578 L172.81875,158.792578 Z M25.090625,155.767188 L171.305859,155.767188 L171.305859,147.35625 L25.090625,147.35625 L25.090625,155.767188 Z" id="Shape" fill="#4A555F"></path>
        </g>
    </g>
</svg>