<svg height="200" viewBox="0 0 1024 1024" width="200" xmlns="http://www.w3.org/2000/svg"><path d="m506.576596 64.978515c-1.125612-.102328-2.353553-.102328-3.479164 0-230.341161 6.344359-357.22834 135.175777-357.22834 362.754072 0 231.773758 290.817228 499.15779 303.19896 510.41391 10.437494 9.516538 24.865794 14.837614 39.908065 14.837614h31.619466c15.04227 0 29.470571-5.321075 40.010393-14.837614 12.381733-11.256121 303.198961-278.640152 303.198961-510.41391 0-227.578295-126.887179-356.409713-357.228341-362.754072zm-1.739582 201.893874c76.439292 0 138.654942 54.336365 138.654942 121.156791s-62.215649 121.15679-138.654942 121.15679-138.654942-54.336365-138.654941-121.15679c0-66.820426 62.215649-121.15679 138.654941-121.156791z" fill="#8a8a8a"/></svg>