<svg height="200" viewBox="0 0 1024 1024" width="200" xmlns="http://www.w3.org/2000/svg"><path d="m940.032 862.72h-49.152v-559.616c0-16.384-9.728-30.72-24.576-37.888l-245.248-128c-13.824-6.144-29.184-6.144-43.008 0-15.36 6.144-25.088 20.992-24.576 101.888v687.616h-49.152v-755.712c0-82.944 0-95.232-18.432-101.888-15.872-6.656-33.28-6.656-49.152 0l-280.576 147.968c-14.848 7.168-24.576 22.528-24.576 38.912v607.232h-49.152c-12.288 0-18.432 6.656-18.432 12.8v71.168c0 6.144 6.144 12.8 18.432 12.8h857.6c5.632 0 17.408-6.656 18.432-12.8v-70.656c1.536-7.68-11.776-13.824-18.432-13.824zm-576-90.112c0 7.168-5.632 12.8-12.8 12.8h-69.12c-7.168 0-12.8-5.632-12.8-12.8v-59.904c0-7.168 5.632-12.8 12.8-12.8h70.656c7.168 0 12.8 5.632 12.8 12.8zm0-180.736c0 7.168-5.632 12.8-12.8 12.8h-69.12c-7.168 0-12.8-5.632-12.8-12.8v-60.928c0-7.168 5.632-12.8 12.8-12.8h70.656c7.168 0 12.8 5.632 12.8 12.8zm0-180.224c0 7.168-5.632 12.8-12.8 12.8h-69.12c-7.168 0-12.8-5.632-12.8-12.8v-61.44c0-7.168 5.632-12.8 12.8-12.8h70.656c7.168 0 12.8 5.632 12.8 12.8zm403.968 360.448c0 7.168-5.632 12.8-12.8 12.8h-70.656c-7.168 0-12.8-5.632-12.8-12.8v-60.416c0-7.168 5.632-12.8 12.8-12.8h70.656c7.168 0 12.8 5.632 12.8 12.8zm0-180.736c0 7.168-5.632 12.8-12.8 12.8h-70.656c-7.168 0-12.8-5.632-12.8-12.8v-60.416c0-7.168 5.632-12.8 12.8-12.8h70.656c7.168 0 12.8 5.632 12.8 12.8zm0-180.224c0 7.168-5.632 12.8-12.8 12.8h-70.656c-7.168 0-12.8-5.632-12.8-12.8v-60.928c0-7.168 5.632-12.8 12.8-12.8h70.656c7.168 0 12.8 5.632 12.8 12.8z" fill="#ccd3df"/></svg>