<svg height="200" viewBox="0 0 1055 1024" width="200" xmlns="http://www.w3.org/2000/svg"><path d="m1005.597012 197.719421h-3.450823l-468.033949-197.719421-468.161758 200.659011v112.72691h939.64653zm-98.156764 214.845731c13.547678 0 24.411383-19.171243 24.411383-32.974538s-10.863704-33.102346-24.411383-33.102346h-144.423365c-13.547678 0-24.539191 19.171243-24.539192 33.102346s10.991513 32.974538 24.539192 32.974538h11.758362v347.127309h-11.758362a24.794808 24.794808 0 0 0 0 49.589616h144.423365a24.794808 24.794808 0 0 0 0-49.589616h-17.254119v-347.127309zm-316.45332 0c12.780829 0 24.411383-19.171243 24.411383-32.974538s-10.991513-33.102346-24.411383-33.102346h-144.551174c-12.780829 0-24.411383 19.171243-24.411383 33.102346s10.991513 32.974538 24.411383 32.974538h15.081378v347.127309h-15.081378a24.794808 24.794808 0 0 0 0 49.589616h144.551174a24.794808 24.794808 0 0 0 0-49.589616h-14.058912v-347.127309zm-298.943585 0c13.547678 0 24.411383-19.171243 24.411383-32.974538s-10.863704-33.102346-24.411383-33.102346h-144.551173c-12.780829 0-24.411383 19.171243-24.411383 33.102346s10.991513 32.974538 24.411383 32.974538h17.381927v347.127309h-17.381927a24.794808 24.794808 0 0 0 0 49.589616h144.551173a24.794808 24.794808 0 0 0 0-49.589616h-11.758362v-347.127309zm739.115327 545.997005h-1007.384923c-13.164253 0-23.772341 5.623564-23.772341 19.171243v21.983025a24.027958 24.027958 0 0 0 23.772341 24.283575h1007.384923a24.155766 24.155766 0 0 0 23.90015-24.283575v-21.983025c0-13.547678-10.735896-19.171243-23.90015-19.171243zm-936.962556-33.61358h884.177733c12.780829 0 27.223165-19.299051 27.223165-34.252621v-16.359461a33.61358 33.61358 0 0 0 -27.223165-32.07988h-884.177733a34.508238 34.508238 0 0 0 -28.245632 32.07988v16.359461c0 14.95357 15.081378 34.252621 28.245632 34.252621z" fill="#ccd3df"/></svg>